<svg version="1.1" id="Layer_1" xmlns="http://www.w3.org/2000/svg" xmlns:xlink="http://www.w3.org/1999/xlink" x="0px" y="0px"
	 width="100%" viewBox="0 0 1080 1080" enable-background="new 0 0 1080 1080" xml:space="preserve">
<path fill="#FFFFFF" opacity="1.000000" stroke="none" 
	d="
M720.000000,1081.000000 
	C480.027649,1081.000000 240.555267,1081.000000 1.041456,1081.000000 
	C1.041456,721.069214 1.041456,361.138367 1.041456,1.103769 
	C360.889252,1.103769 720.778564,1.103769 1080.833984,1.103769 
	C1080.833984,360.999939 1080.833984,720.999939 1080.833984,1081.000000 
	C960.804504,1081.000000 840.652283,1081.000000 720.000000,1081.000000 
M892.603516,813.628418 
	C890.623169,812.864624 888.654968,811.471741 886.660645,811.433167 
	C863.369446,810.982727 840.075012,810.609070 816.780029,810.470947 
	C792.626953,810.327820 768.472229,810.446960 744.318237,810.482971 
	C602.582703,810.694214 460.847198,810.914185 319.111664,811.132446 
	C285.803162,811.183777 252.494629,811.242310 219.186111,811.291565 
	C210.899033,811.303833 202.611938,811.293396 194.058167,811.293396 
	C194.571976,812.685181 194.824371,813.368835 194.129822,814.054504 
	C179.797272,814.054565 165.401321,814.879272 151.152985,813.783936 
	C140.473358,812.962952 134.828537,819.806213 128.391296,825.514526 
	C123.530197,829.825012 119.573013,834.833313 117.536507,841.810425 
	C115.811066,847.721680 113.727699,853.321594 114.273933,859.491638 
	C114.464081,861.639526 115.921982,863.654236 116.257454,865.814148 
	C117.240776,872.145020 119.287086,877.980408 123.829964,882.608154 
	C127.512939,886.359863 131.278229,890.087463 135.381836,893.355103 
	C140.450043,897.390686 146.124390,900.015381 152.957794,899.956787 
	C220.851761,899.375305 288.747040,898.467773 356.641296,898.517212 
	C449.185638,898.584534 541.729187,899.445679 634.273682,899.834656 
	C642.192139,899.867981 650.110535,898.646973 658.037170,898.519165 
	C662.562012,898.446228 667.103088,899.833862 671.637573,899.838196 
	C758.299072,899.921997 844.960754,899.928162 931.622070,899.776855 
	C934.867554,899.771179 938.350708,898.492432 941.312988,896.995483 
	C955.459839,889.846313 963.927612,878.050354 965.597107,862.524170 
	C966.499695,854.130127 964.476135,845.419556 963.728516,836.855652 
	C963.691162,836.427917 963.287537,835.986084 962.962341,835.636414 
	C958.264893,830.586426 953.894531,825.160950 948.738525,820.630188 
	C944.252502,816.688171 939.265442,813.605103 932.439392,813.891174 
	C919.296692,814.441833 906.114380,814.046265 892.603516,813.628418 
M549.500000,587.842224 
	C680.969055,587.847046 812.438110,587.901184 943.906860,587.703064 
	C950.139832,587.693726 956.574646,586.078247 962.564270,584.130615 
	C986.291199,576.415100 998.094971,549.301697 990.400940,526.744873 
	C982.931946,504.847992 966.820557,494.924042 945.917725,494.309052 
	C920.945496,493.574310 895.934753,494.156952 870.940674,494.156464 
	C625.997070,494.151703 381.053467,494.105164 136.110092,494.341278 
	C129.286667,494.347839 121.971504,496.311737 115.745789,499.210419 
	C102.183205,505.525055 94.165993,516.252014 90.552597,531.370544 
	C88.476982,540.054932 89.140511,548.093201 91.706696,555.500793 
	C99.395660,577.695923 115.774101,587.707336 138.094849,587.743103 
	C274.896271,587.962341 411.698212,587.846436 549.500000,587.842224 
M710.500000,181.125168 
	C678.183899,180.920700 645.867859,180.548462 613.551758,180.548615 
	C556.070129,180.548904 498.586853,180.551544 441.107269,180.969299 
	C384.356781,181.381744 327.611176,182.431412 270.861237,182.968948 
	C231.713058,183.339767 192.560974,183.287506 153.411041,183.498260 
	C148.038712,183.527176 143.273697,183.395981 138.043442,187.469528 
	C131.857330,192.287552 125.410370,196.465805 121.412399,203.332336 
	C117.037788,210.845718 113.589928,218.889969 114.284187,227.747635 
	C114.627724,232.130707 117.731857,236.331055 117.917542,240.685242 
	C118.225090,247.896896 123.140022,251.648499 127.380402,256.003723 
	C130.446304,259.152649 133.621658,262.385040 137.305725,264.688507 
	C140.978043,266.984589 145.343994,269.629059 149.408035,269.632690 
	C409.698669,269.864288 669.989563,269.842010 930.280396,269.838348 
	C931.779297,269.838348 933.422119,270.174194 934.754944,269.687805 
	C949.023682,264.480743 959.558105,255.288773 963.740479,240.328400 
	C965.317505,234.687256 965.598999,228.602356 965.814697,222.695770 
	C965.926514,219.635147 964.582886,216.526810 963.936157,213.431793 
	C962.866699,208.313858 962.258728,203.004593 957.467712,199.606369 
	C956.556641,198.960144 955.590881,198.160080 955.090698,197.201263 
	C950.359985,188.134018 942.111267,183.998810 932.708313,183.663086 
	C913.402100,182.973816 894.056030,183.408600 874.726562,183.345856 
	C872.356689,183.338165 869.987427,183.117401 867.617920,182.995392 
	C867.625610,182.614761 867.633240,182.234146 867.640930,181.853516 
	C870.574036,181.718994 873.507141,181.584473 876.440186,181.449936 
	C876.438354,181.341965 876.436462,181.233978 876.434570,181.126007 
	C821.456421,181.126007 766.478210,181.126007 710.500000,181.125168 
z"/>
<path fill="#2BB7F6" opacity="1.000000" stroke="none" 
	d="
M549.000000,587.842163 
	C411.698212,587.846436 274.896271,587.962341 138.094849,587.743103 
	C115.774101,587.707336 99.395660,577.695923 91.706696,555.500793 
	C89.140511,548.093201 88.476982,540.054932 90.552597,531.370544 
	C94.165993,516.252014 102.183205,505.525055 115.745789,499.210419 
	C121.971504,496.311737 129.286667,494.347839 136.110092,494.341278 
	C381.053467,494.105164 625.997070,494.151703 870.940674,494.156464 
	C895.934753,494.156952 920.945496,493.574310 945.917725,494.309052 
	C966.820557,494.924042 982.931946,504.847992 990.400940,526.744873 
	C998.094971,549.301697 986.291199,576.415100 962.564270,584.130615 
	C956.574646,586.078247 950.139832,587.693726 943.906860,587.703064 
	C812.438110,587.901184 680.969055,587.847046 549.000000,587.842163 
z"/>
<path fill="#1867C1" opacity="1.000000" stroke="none" 
	d="
M711.000000,181.125580 
	C766.478210,181.126007 821.456421,181.126007 876.434570,181.126007 
	C876.436462,181.233978 876.438354,181.341965 876.440186,181.449936 
	C873.507141,181.584473 870.574036,181.718994 867.640930,181.853516 
	C867.633240,182.234146 867.625610,182.614761 867.617920,182.995392 
	C869.987427,183.117401 872.356689,183.338165 874.726562,183.345856 
	C894.056030,183.408600 913.402100,182.973816 932.708313,183.663086 
	C942.111267,183.998810 950.359985,188.134018 955.090698,197.201263 
	C955.590881,198.160080 956.556641,198.960144 957.467712,199.606369 
	C962.258728,203.004593 962.866699,208.313858 963.936157,213.431793 
	C964.582886,216.526810 965.926514,219.635147 965.814697,222.695770 
	C965.598999,228.602356 965.317505,234.687256 963.740479,240.328400 
	C959.558105,255.288773 949.023682,264.480743 934.754944,269.687805 
	C933.422119,270.174194 931.779297,269.838348 930.280396,269.838348 
	C669.989563,269.842010 409.698669,269.864288 149.408035,269.632690 
	C145.343994,269.629059 140.978043,266.984589 137.305725,264.688507 
	C133.621658,262.385040 130.446304,259.152649 127.380402,256.003723 
	C123.140022,251.648499 118.225090,247.896896 117.917542,240.685242 
	C117.731857,236.331055 114.627724,232.130707 114.284187,227.747635 
	C113.589928,218.889969 117.037788,210.845718 121.412399,203.332336 
	C125.410370,196.465805 131.857330,192.287552 138.043442,187.469528 
	C143.273697,183.395981 148.038712,183.527176 153.411041,183.498260 
	C192.560974,183.287506 231.713058,183.339767 270.861237,182.968948 
	C327.611176,182.431412 384.356781,181.381744 441.107269,180.969299 
	C498.586853,180.551544 556.070129,180.548904 613.551758,180.548615 
	C645.867859,180.548462 678.183899,180.920700 711.000000,181.125580 
z"/>
<path fill="#1666C0" opacity="1.000000" stroke="none" 
	d="
M892.948486,814.043030 
	C906.114380,814.046265 919.296692,814.441833 932.439392,813.891174 
	C939.265442,813.605103 944.252502,816.688171 948.738525,820.630188 
	C953.894531,825.160950 958.264893,830.586426 962.962341,835.636414 
	C963.287537,835.986084 963.691162,836.427917 963.728516,836.855652 
	C964.476135,845.419556 966.499695,854.130127 965.597107,862.524170 
	C963.927612,878.050354 955.459839,889.846313 941.312988,896.995483 
	C938.350708,898.492432 934.867554,899.771179 931.622070,899.776855 
	C844.960754,899.928162 758.299072,899.921997 671.637573,899.838196 
	C667.103088,899.833862 662.562012,898.446228 658.037170,898.519165 
	C650.110535,898.646973 642.192139,899.867981 634.273682,899.834656 
	C541.729187,899.445679 449.185638,898.584534 356.641296,898.517212 
	C288.747040,898.467773 220.851761,899.375305 152.957794,899.956787 
	C146.124390,900.015381 140.450043,897.390686 135.381836,893.355103 
	C131.278229,890.087463 127.512939,886.359863 123.829964,882.608154 
	C119.287086,877.980408 117.240776,872.145020 116.257454,865.814148 
	C115.921982,863.654236 114.464081,861.639526 114.273933,859.491638 
	C113.727699,853.321594 115.811066,847.721680 117.536507,841.810425 
	C119.573013,834.833313 123.530197,829.825012 128.391296,825.514526 
	C134.828537,819.806213 140.473358,812.962952 151.152985,813.783936 
	C165.401321,814.879272 179.797272,814.054565 195.060608,814.136536 
	C208.472824,814.414001 220.954529,814.779114 233.435623,814.759827 
	C247.534363,814.738037 261.632507,814.186646 275.730988,814.181824 
	C459.848663,814.118774 643.966309,814.112976 828.083984,814.088806 
	C849.705505,814.085999 871.326965,814.058899 892.948486,814.043030 
z"/>
<path fill="#6EA0D7" opacity="1.000000" stroke="none" 
	d="
M892.776001,813.835693 
	C871.326965,814.058899 849.705505,814.085999 828.083984,814.088806 
	C643.966309,814.112976 459.848663,814.118774 275.730988,814.181824 
	C261.632507,814.186646 247.534363,814.738037 233.435623,814.759827 
	C220.954529,814.779114 208.472824,814.414001 195.534073,814.135498 
	C194.824371,813.368835 194.571976,812.685181 194.058167,811.293396 
	C202.611938,811.293396 210.899033,811.303833 219.186111,811.291565 
	C252.494629,811.242310 285.803162,811.183777 319.111664,811.132446 
	C460.847198,810.914185 602.582703,810.694214 744.318237,810.482971 
	C768.472229,810.446960 792.626953,810.327820 816.780029,810.470947 
	C840.075012,810.609070 863.369446,810.982727 886.660645,811.433167 
	C888.654968,811.471741 890.623169,812.864624 892.776001,813.835693 
z"/>
</svg>